<mxfile host="65bd71144e">
    <diagram id="5fO-f-AIeD6EJZzztp6L" name="Page-1">
        <mxGraphModel dx="678" dy="1681" grid="1" gridSize="10" guides="1" tooltips="1" connect="1" arrows="1" fold="1" page="1" pageScale="1" pageWidth="827" pageHeight="1169" math="0" shadow="0">
            <root>
                <mxCell id="0"/>
                <mxCell id="1" parent="0"/>
                <mxCell id="45" value="1:M" style="edgeStyle=none;html=1;exitX=0.5;exitY=1;exitDx=0;exitDy=0;entryX=0.5;entryY=0;entryDx=0;entryDy=0;" parent="1" source="23" target="35" edge="1">
                    <mxGeometry relative="1" as="geometry"/>
                </mxCell>
                <mxCell id="23" value="Sutra" style="swimlane;childLayout=stackLayout;horizontal=1;startSize=30;horizontalStack=0;rounded=1;fontSize=14;fontStyle=0;strokeWidth=2;resizeParent=0;resizeLast=1;shadow=0;dashed=0;align=center;arcSize=0;" parent="1" vertex="1" collapsed="1">
                    <mxGeometry x="120" y="110" width="70" height="30" as="geometry">
                        <mxRectangle x="120" y="110" width="160" height="190" as="alternateBounds"/>
                    </mxGeometry>
                </mxCell>
                <mxCell id="24" value="+Title&#10;+Language&#10;+Dynasty&#10;+Translator&#10;+Category" style="align=left;strokeColor=none;fillColor=none;spacingLeft=4;fontSize=12;verticalAlign=top;resizable=0;rotatable=0;part=1;" parent="23" vertex="1">
                    <mxGeometry y="30" width="70" as="geometry"/>
                </mxCell>
                <mxCell id="47" value="1:M" style="edgeStyle=none;html=1;exitX=1;exitY=0.5;exitDx=0;exitDy=0;" parent="1" source="29" target="40" edge="1">
                    <mxGeometry relative="1" as="geometry"/>
                </mxCell>
                <mxCell id="49" value="1:M" style="edgeStyle=none;html=1;exitX=0.5;exitY=1;exitDx=0;exitDy=0;entryX=0.5;entryY=0;entryDx=0;entryDy=0;" parent="1" source="29" target="31" edge="1">
                    <mxGeometry relative="1" as="geometry"/>
                </mxCell>
                <mxCell id="29" value="Paragraph" style="swimlane;childLayout=stackLayout;horizontal=1;startSize=30;horizontalStack=0;rounded=1;fontSize=14;fontStyle=0;strokeWidth=2;resizeParent=0;resizeLast=1;shadow=0;dashed=0;align=center;" parent="1" vertex="1" collapsed="1">
                    <mxGeometry x="120" y="520" width="70" height="30" as="geometry">
                        <mxRectangle x="120" y="520" width="160" height="190" as="alternateBounds"/>
                    </mxGeometry>
                </mxCell>
                <mxCell id="30" value="+Num&#10;+Sentences" style="align=left;strokeColor=none;fillColor=none;spacingLeft=4;fontSize=12;verticalAlign=top;resizable=0;rotatable=0;part=1;" parent="29" vertex="1">
                    <mxGeometry y="30" width="70" as="geometry"/>
                </mxCell>
                <mxCell id="50" value="1:M" style="edgeStyle=none;html=1;exitX=0.5;exitY=1;exitDx=0;exitDy=0;entryX=0.5;entryY=0;entryDx=0;entryDy=0;" parent="1" source="31" target="33" edge="1">
                    <mxGeometry relative="1" as="geometry"/>
                </mxCell>
                <mxCell id="31" value="Sentence" style="swimlane;childLayout=stackLayout;horizontal=1;startSize=30;horizontalStack=0;rounded=1;fontSize=14;fontStyle=0;strokeWidth=2;resizeParent=0;resizeLast=1;shadow=0;dashed=0;align=center;" parent="1" vertex="1" collapsed="1">
                    <mxGeometry x="120" y="720" width="70" height="30" as="geometry">
                        <mxRectangle x="120" y="720" width="160" height="190" as="alternateBounds"/>
                    </mxGeometry>
                </mxCell>
                <mxCell id="32" value="+Num&#10;+Content&#10;+Source&#10;+Comments&#10;+Type(verse, etc)" style="align=left;strokeColor=none;fillColor=none;spacingLeft=4;fontSize=12;verticalAlign=top;resizable=0;rotatable=0;part=1;" parent="31" vertex="1">
                    <mxGeometry y="30" width="70" as="geometry"/>
                </mxCell>
                <mxCell id="33" value="Footnote" style="swimlane;childLayout=stackLayout;horizontal=1;startSize=30;horizontalStack=0;rounded=1;fontSize=14;fontStyle=0;strokeWidth=2;resizeParent=0;resizeLast=1;shadow=0;dashed=0;align=center;" parent="1" vertex="1" collapsed="1">
                    <mxGeometry x="120" y="920" width="70" height="30" as="geometry">
                        <mxRectangle x="600" y="620" width="160" height="190" as="alternateBounds"/>
                    </mxGeometry>
                </mxCell>
                <mxCell id="34" value="+Num&#10;+Content&#10;+Comments&#10;" style="align=left;strokeColor=none;fillColor=none;spacingLeft=4;fontSize=12;verticalAlign=top;resizable=0;rotatable=0;part=1;" parent="33" vertex="1">
                    <mxGeometry y="30" width="70" as="geometry"/>
                </mxCell>
                <mxCell id="46" value="1:M" style="edgeStyle=none;html=1;exitX=0.5;exitY=1;exitDx=0;exitDy=0;entryX=0.5;entryY=0;entryDx=0;entryDy=0;" parent="1" source="35" target="29" edge="1">
                    <mxGeometry relative="1" as="geometry"/>
                </mxCell>
                <mxCell id="35" value="Roll" style="swimlane;childLayout=stackLayout;horizontal=1;startSize=30;horizontalStack=0;rounded=1;fontSize=14;fontStyle=0;strokeWidth=2;resizeParent=0;resizeLast=1;shadow=0;dashed=0;align=center;" parent="1" vertex="1" collapsed="1">
                    <mxGeometry x="120" y="320" width="70" height="30" as="geometry">
                        <mxRectangle x="120" y="320" width="160" height="190" as="alternateBounds"/>
                    </mxGeometry>
                </mxCell>
                <mxCell id="36" value="+Title&#10;+Paragraphs&#10;+&#10;+&#10;+" style="align=left;strokeColor=none;fillColor=none;spacingLeft=4;fontSize=12;verticalAlign=top;resizable=0;rotatable=0;part=1;" parent="35" vertex="1">
                    <mxGeometry y="30" width="70" as="geometry"/>
                </mxCell>
                <mxCell id="44" value="1:M" style="edgeStyle=none;html=1;exitX=0.5;exitY=1;exitDx=0;exitDy=0;entryX=0.5;entryY=0;entryDx=0;entryDy=0;" parent="1" source="38" target="23" edge="1">
                    <mxGeometry relative="1" as="geometry"/>
                </mxCell>
                <mxCell id="38" value="Tripitaka" style="swimlane;childLayout=stackLayout;horizontal=1;startSize=30;horizontalStack=0;rounded=1;fontSize=14;fontStyle=0;strokeWidth=2;resizeParent=0;resizeLast=1;shadow=0;dashed=0;align=center;" parent="1" vertex="1" collapsed="1">
                    <mxGeometry x="120" y="-120" width="70" height="30" as="geometry">
                        <mxRectangle x="120" y="-120" width="160" height="190" as="alternateBounds"/>
                    </mxGeometry>
                </mxCell>
                <mxCell id="39" value="+Name&#10;+Source&#10;+&#10;+" style="align=left;strokeColor=none;fillColor=none;spacingLeft=4;fontSize=12;verticalAlign=top;resizable=0;rotatable=0;part=1;" parent="38" vertex="1">
                    <mxGeometry y="30" width="70" as="geometry"/>
                </mxCell>
                <mxCell id="40" value="Comment" style="swimlane;childLayout=stackLayout;horizontal=1;startSize=30;horizontalStack=0;rounded=1;fontSize=14;fontStyle=0;strokeWidth=2;resizeParent=0;resizeLast=1;shadow=0;dashed=0;align=center;" parent="1" vertex="1" collapsed="1">
                    <mxGeometry x="320" y="520" width="70" height="30" as="geometry">
                        <mxRectangle x="500" y="390" width="160" height="190" as="alternateBounds"/>
                    </mxGeometry>
                </mxCell>
                <mxCell id="41" value="+Source_Text&#10;+Content&#10;" style="align=left;strokeColor=none;fillColor=none;spacingLeft=4;fontSize=12;verticalAlign=top;resizable=0;rotatable=0;part=1;" parent="40" vertex="1">
                    <mxGeometry y="30" width="70" as="geometry"/>
                </mxCell>
                <mxCell id="51" value="Team" style="swimlane;childLayout=stackLayout;horizontal=1;startSize=30;horizontalStack=0;rounded=1;fontSize=14;fontStyle=0;strokeWidth=2;resizeParent=0;resizeLast=1;shadow=0;dashed=0;align=center;arcSize=0;" vertex="1" parent="1">
                    <mxGeometry x="270" y="-330" width="160" height="190" as="geometry">
                        <mxRectangle x="270" y="-330" width="70" height="30" as="alternateBounds"/>
                    </mxGeometry>
                </mxCell>
                <mxCell id="52" value="+Name" style="align=left;strokeColor=none;fillColor=none;spacingLeft=4;fontSize=12;verticalAlign=top;resizable=0;rotatable=0;part=1;" vertex="1" parent="51">
                    <mxGeometry y="30" width="160" height="160" as="geometry"/>
                </mxCell>
                <mxCell id="54" value="User" style="swimlane;childLayout=stackLayout;horizontal=1;startSize=30;horizontalStack=0;rounded=1;fontSize=14;fontStyle=0;strokeWidth=2;resizeParent=0;resizeLast=1;shadow=0;dashed=0;align=center;arcSize=0;" vertex="1" parent="1">
                    <mxGeometry x="510" y="-330" width="160" height="190" as="geometry">
                        <mxRectangle x="270" y="-330" width="70" height="30" as="alternateBounds"/>
                    </mxGeometry>
                </mxCell>
                <mxCell id="55" value="+Name&#10;+Email&#10;+Password&#10;+Origin_lang&#10;+Target_langÂ " style="align=left;strokeColor=none;fillColor=none;spacingLeft=4;fontSize=12;verticalAlign=top;resizable=0;rotatable=0;part=1;" vertex="1" parent="54">
                    <mxGeometry y="30" width="160" height="160" as="geometry"/>
                </mxCell>
            </root>
        </mxGraphModel>
    </diagram>
</mxfile>